# xmcd
#
# Track frame offsets: 
#        150
#        10340
#        26795
#        40213
#        54259
#        68638
#        81603
#        96494
#        108889
#        125827
#        138942
#        149848
#        165728
#        176899
#        193377
#        209117
#        223648
#        243191
#        266804
#        283879
#
# Disc length: 4034 seconds
#
# Revision: 1
# Processed by: cddbd v1.5.2PL0 Copyright (c) Steve Scherf et al.
# Submitted via: ExactAudioCopyFreeDBPlugin 1.0
#
DISCID=4a0fc014
DTITLE=Alan Jackson - Genuine The Alan Jackson Story [CD01)
DYEAR=2015
DGENRE=Country
TTITLE0=Blue Blooded Woman
TTITLE1=Here In The Real World
TTITLE2=Wanted
TTITLE3=Chasin' That Neon Rainbow
TTITLE4=I'd Love You All Over Again
TTITLE5=Don't Rock The Jukebox
TTITLE6=Someday
TTITLE7=Dallas
TTITLE8=Midnight In Montgomery
TTITLE9=Love's Got A Hold On You
TTITLE10=She's Got The Rhythm (And I Got The Blues)
TTITLE11=Tonight I Climbed The Wall
TTITLE12=Chattahoochee
TTITLE13=Mercury Blues
TTITLE14=(Who Says) You Can't Have It All
TTITLE15=Summertime Blues
TTITLE16=Gone Country
TTITLE17=Born Too Late
TTITLE18=If Tears Could Talk
TTITLE19=Seven Bridges Road - Live
EXTD=
EXTT0=
EXTT1=
EXTT2=
EXTT3=
EXTT4=
EXTT5=
EXTT6=
EXTT7=
EXTT8=
EXTT9=
EXTT10=
EXTT11=
EXTT12=
EXTT13=
EXTT14=
EXTT15=
EXTT16=
EXTT17=
EXTT18=
EXTT19=
PLAYORDER=
